<?xml version="1.0" encoding="UTF-8" standalone="no"?>
<svg
   width="252.36801pt"
   height="172.52354pt"
   viewBox="0 0 252.368 172.52354"
   version="1.1"
   id="svg972"
   sodipodi:docname="selected_TFs_expression_14dpf.svg"
   inkscape:version="1.1.2 (0a00cf5339, 2022-02-04)"
   xmlns:inkscape="http://www.inkscape.org/namespaces/inkscape"
   xmlns:sodipodi="http://sodipodi.sourceforge.net/DTD/sodipodi-0.dtd"
   xmlns:xlink="http://www.w3.org/1999/xlink"
   xmlns="http://www.w3.org/2000/svg"
   xmlns:svg="http://www.w3.org/2000/svg"
   xmlns:rdf="http://www.w3.org/1999/02/22-rdf-syntax-ns#"
   xmlns:cc="http://creativecommons.org/ns#"
   xmlns:dc="http://purl.org/dc/elements/1.1/">
  <sodipodi:namedview
     id="namedview974"
     pagecolor="#ffffff"
     bordercolor="#666666"
     borderopacity="1.0"
     inkscape:pageshadow="2"
     inkscape:pageopacity="0.0"
     inkscape:pagecheckerboard="0"
     inkscape:document-units="pt"
     showgrid="false"
     fit-margin-top="0"
     fit-margin-left="0"
     fit-margin-right="0"
     fit-margin-bottom="0"
     inkscape:zoom="0.55157857"
     inkscape:cx="103.33977"
     inkscape:cy="182.20432"
     inkscape:window-width="2032"
     inkscape:window-height="1232"
     inkscape:window-x="8"
     inkscape:window-y="40"
     inkscape:window-maximized="0"
     inkscape:current-layer="svg972" />
  <metadata
     id="metadata2">
    <rdf:RDF>
      <cc:Work>
        <dc:type
           rdf:resource="http://purl.org/dc/dcmitype/StillImage" />
        <dc:date>2026-05-18T10:45:15.534466</dc:date>
        <dc:format>image/svg+xml</dc:format>
        <dc:creator>
          <cc:Agent>
            <dc:title>Matplotlib v3.10.9, https://matplotlib.org/</dc:title>
          </cc:Agent>
        </dc:creator>
      </cc:Work>
    </rdf:RDF>
  </metadata>
  <defs
     id="defs6">
    <style
       type="text/css"
       id="style4">*{stroke-linejoin: round; stroke-linecap: butt}</style>
  </defs>
  <g
     id="matplotlib.axis_2"
     transform="translate(-188.03015,-16.209911)">
    <g
       id="ytick_1" />
    <g
       id="ytick_2" />
  </g>
  <g
     id="matplotlib.axis_4"
     transform="translate(-188.03015,-16.209911)" />
  <g
     id="LineCollection_1"
     transform="translate(-188.03015,-16.209911)" />
  <defs
     id="defs970">
    <clipPath
       id="p54deb4321b">
      <rect
         x="78.120003"
         y="55.11507"
         width="235.28308"
         height="6.1012578"
         id="rect961" />
    </clipPath>
    <clipPath
       id="pd5f2d2dba6">
      <rect
         x="350.49725"
         y="131.47554"
         width="211.96674"
         height="20.463846"
         id="rect964" />
    </clipPath>
    <clipPath
       id="pedbbcfbb3d">
      <rect
         x="78.120003"
         y="61.216331"
         width="235.28308"
         height="134.22768"
         id="rect967" />
    </clipPath>
  </defs>
  <g
     id="g22729"
     transform="translate(-39.797176,-64.324776)">
    <g
       id="patch_6"
       transform="translate(-21.637897,3.5084461)">
      <path
         d="M 78.12,195.444 H 313.40308 V 61.21633 H 78.12 Z"
         style="fill:#ffffff"
         id="path404" />
    </g>
    <g
       id="PathCollection_2"
       transform="translate(-21.637897,3.5084461)">
      <path
         d="m 106.63916,72.578809 c 0.0469,0 0.0919,-0.01863 0.12505,-0.0518 0.0332,-0.03316 0.0518,-0.07815 0.0518,-0.125044 0,-0.0469 -0.0186,-0.09188 -0.0518,-0.125044 -0.0332,-0.03316 -0.0782,-0.0518 -0.12505,-0.0518 -0.0469,0 -0.0919,0.01863 -0.12504,0.0518 -0.0332,0.03316 -0.0518,0.07815 -0.0518,0.125044 0,0.0469 0.0186,0.09188 0.0518,0.125044 0.0332,0.03316 0.0781,0.0518 0.12504,0.0518 z"
         clip-path="url(#pedbbcfbb3d)"
         style="fill:#fff0e8;stroke:#000000;stroke-width:0.2"
         id="path407" />
      <path
         d="m 142.28811,74.515938 c 0.56063,0 1.09838,-0.222741 1.4948,-0.619167 0.39643,-0.396426 0.61917,-0.934171 0.61917,-1.494802 0,-0.560631 -0.22274,-1.098376 -0.61917,-1.494802 -0.39642,-0.396426 -0.93417,-0.619167 -1.4948,-0.619167 -0.56063,0 -1.09837,0.222741 -1.4948,0.619167 -0.39643,0.396426 -0.61917,0.934171 -0.61917,1.494802 0,0.560631 0.22274,1.098376 0.61917,1.494802 0.39643,0.396426 0.93417,0.619167 1.4948,0.619167 z"
         clip-path="url(#pedbbcfbb3d)"
         style="fill:#ef3c2c;stroke:#000000;stroke-width:0.2"
         id="path409" />
      <path
         d="m 177.93706,73.704655 c 0.34548,0 0.67685,-0.13726 0.92114,-0.381548 0.24429,-0.244289 0.38155,-0.575662 0.38155,-0.921138 0,-0.345476 -0.13726,-0.676849 -0.38155,-0.921138 -0.24429,-0.244288 -0.57566,-0.381547 -0.92114,-0.381547 -0.34547,0 -0.67685,0.137259 -0.92113,0.381547 -0.24429,0.244289 -0.38155,0.575662 -0.38155,0.921138 0,0.345476 0.13726,0.676849 0.38155,0.921138 0.24428,0.244288 0.57566,0.381548 0.92113,0.381548 z"
         clip-path="url(#pedbbcfbb3d)"
         style="fill:#fc8a6a;stroke:#000000;stroke-width:0.2"
         id="path411" />
      <path
         d="m 213.58602,72.621393 c 0.0582,0 0.114,-0.02312 0.15515,-0.06427 0.0411,-0.04115 0.0643,-0.09696 0.0643,-0.155156 0,-0.05819 -0.0231,-0.114008 -0.0643,-0.155156 -0.0412,-0.04115 -0.097,-0.06427 -0.15515,-0.06427 -0.0582,0 -0.11401,0.02312 -0.15516,0.06427 -0.0411,0.04115 -0.0643,0.09696 -0.0643,0.155156 0,0.05819 0.0231,0.114008 0.0643,0.155156 0.0412,0.04115 0.097,0.06427 0.15516,0.06427 z"
         clip-path="url(#pedbbcfbb3d)"
         style="fill:#fee7db;stroke:#000000;stroke-width:0.2"
         id="path413" />
      <path
         d="m 249.23497,72.661367 c 0.0688,0 0.13478,-0.02733 0.18342,-0.07598 0.0486,-0.04864 0.076,-0.114629 0.076,-0.183422 0,-0.06879 -0.0273,-0.134778 -0.076,-0.183422 -0.0486,-0.04864 -0.11463,-0.07597 -0.18342,-0.07597 -0.0688,0 -0.13478,0.02733 -0.18342,0.07597 -0.0486,0.04864 -0.076,0.114629 -0.076,0.183422 0,0.06879 0.0273,0.134778 0.076,0.183422 0.0486,0.04864 0.11462,0.07598 0.18342,0.07598 z"
         clip-path="url(#pedbbcfbb3d)"
         style="fill:#fee7dc;stroke:#000000;stroke-width:0.2"
         id="path415" />
      <path
         d="m 284.88392,74.319479 c 0.50853,0 0.9963,-0.202041 1.35588,-0.561626 0.35959,-0.359584 0.56163,-0.847354 0.56163,-1.355884 0,-0.50853 -0.20204,-0.9963 -0.56163,-1.355884 -0.35958,-0.359585 -0.84735,-0.561626 -1.35588,-0.561626 -0.50853,0 -0.9963,0.202041 -1.35589,0.561626 -0.35958,0.359584 -0.56162,0.847354 -0.56162,1.355884 0,0.50853 0.20204,0.9963 0.56162,1.355884 0.35959,0.359585 0.84736,0.561626 1.35589,0.561626 z"
         clip-path="url(#pedbbcfbb3d)"
         style="fill:#fcad90;stroke:#000000;stroke-width:0.2"
         id="path417" />
      <path
         d="m 106.63916,83.806915 c 0.0582,0 0.11395,-0.02311 0.15508,-0.06423 0.0411,-0.04113 0.0642,-0.09691 0.0642,-0.155073 0,-0.05816 -0.0231,-0.113947 -0.0642,-0.155073 -0.0411,-0.04113 -0.0969,-0.06423 -0.15508,-0.06423 -0.0582,0 -0.11395,0.02311 -0.15507,0.06423 -0.0411,0.04113 -0.0642,0.09691 -0.0642,0.155073 0,0.05816 0.0231,0.113948 0.0642,0.155073 0.0411,0.04113 0.0969,0.06423 0.15507,0.06423 z"
         clip-path="url(#pedbbcfbb3d)"
         style="fill:#fff0e9;stroke:#000000;stroke-width:0.2"
         id="path419" />
      <path
         d="m 142.28811,85.770919 c 0.57902,0 1.13441,-0.230047 1.54384,-0.639477 0.40943,-0.409429 0.63947,-0.964813 0.63947,-1.543834 0,-0.579021 -0.23004,-1.134404 -0.63947,-1.543834 -0.40943,-0.40943 -0.96482,-0.639477 -1.54384,-0.639477 -0.57902,0 -1.1344,0.230047 -1.54383,0.639477 -0.40943,0.40943 -0.63948,0.964813 -0.63948,1.543834 0,0.579021 0.23005,1.134405 0.63948,1.543834 0.40943,0.40943 0.96481,0.639477 1.54383,0.639477 z"
         clip-path="url(#pedbbcfbb3d)"
         style="fill:#fcc2aa;stroke:#000000;stroke-width:0.2"
         id="path421" />
      <path
         d="m 177.93706,86.180711 c 0.6877,0 1.34733,-0.273226 1.8336,-0.759502 0.48628,-0.486277 0.75951,-1.145902 0.75951,-1.833601 0,-0.687699 -0.27323,-1.347324 -0.75951,-1.8336 -0.48627,-0.486277 -1.1459,-0.759502 -1.8336,-0.759502 -0.68769,0 -1.34732,0.273225 -1.8336,0.759502 -0.48627,0.486276 -0.7595,1.145901 -0.7595,1.8336 0,0.687699 0.27323,1.347324 0.7595,1.833601 0.48628,0.486276 1.14591,0.759502 1.8336,0.759502 z"
         clip-path="url(#pedbbcfbb3d)"
         style="fill:#f5523a;stroke:#000000;stroke-width:0.2"
         id="path423" />
      <path
         d="m 213.58602,84.29555 c 0.18774,0 0.36783,-0.07459 0.50059,-0.207351 0.13275,-0.132759 0.20735,-0.312842 0.20735,-0.500591 0,-0.187748 -0.0746,-0.367832 -0.20735,-0.50059 -0.13276,-0.132758 -0.31285,-0.207351 -0.50059,-0.207351 -0.18775,0 -0.36784,0.07459 -0.50059,0.207351 -0.13276,0.132758 -0.20736,0.312842 -0.20736,0.50059 0,0.187749 0.0746,0.367832 0.20736,0.500591 0.13275,0.132758 0.31284,0.207351 0.50059,0.207351 z"
         clip-path="url(#pedbbcfbb3d)"
         style="fill:#fc9b7c;stroke:#000000;stroke-width:0.2"
         id="path425" />
      <path
         d="m 249.23497,84.399728 c 0.21537,0 0.42196,-0.08557 0.57425,-0.237864 0.1523,-0.152294 0.23787,-0.358879 0.23787,-0.574256 0,-0.215377 -0.0856,-0.421961 -0.23787,-0.574255 -0.15229,-0.152295 -0.35888,-0.237865 -0.57425,-0.237865 -0.21538,0 -0.42196,0.08557 -0.57426,0.237865 -0.15229,0.152294 -0.23786,0.358878 -0.23786,0.574255 0,0.215377 0.0856,0.421962 0.23786,0.574256 0.1523,0.152294 0.35888,0.237864 0.57426,0.237864 z"
         clip-path="url(#pedbbcfbb3d)"
         style="fill:#fcbda4;stroke:#000000;stroke-width:0.2"
         id="path427" />
      <path
         d="m 284.88392,88.565692 c 1.3202,0 2.58651,-0.524522 3.52004,-1.458047 0.93352,-0.933525 1.45804,-2.199834 1.45804,-3.520037 0,-1.320203 -0.52452,-2.586512 -1.45804,-3.520036 -0.93353,-0.933525 -2.19984,-1.458047 -3.52004,-1.458047 -1.3202,0 -2.58651,0.524522 -3.52004,1.458047 -0.93352,0.933524 -1.45804,2.199833 -1.45804,3.520036 0,1.320203 0.52452,2.586512 1.45804,3.520037 0.93353,0.933525 2.19984,1.458047 3.52004,1.458047 z"
         clip-path="url(#pedbbcfbb3d)"
         style="fill:#cf1c1f;stroke:#000000;stroke-width:0.2"
         id="path429" />
      <path
         d="m 106.63916,94.90916 c 0.0361,0 0.0706,-0.01432 0.0961,-0.03981 0.0255,-0.02549 0.0398,-0.06006 0.0398,-0.09611 0,-0.03604 -0.0143,-0.07062 -0.0398,-0.0961 -0.0255,-0.02549 -0.0601,-0.03981 -0.0961,-0.03981 -0.036,0 -0.0706,0.01432 -0.0961,0.03981 -0.0255,0.02549 -0.0398,0.06006 -0.0398,0.0961 0,0.03605 0.0143,0.07062 0.0398,0.09611 0.0255,0.02549 0.0601,0.03981 0.0961,0.03981 z"
         clip-path="url(#pedbbcfbb3d)"
         style="fill:#fff1ea;stroke:#000000;stroke-width:0.2"
         id="path431" />
      <path
         d="m 142.28811,96.990875 c 0.58812,0 1.15224,-0.233663 1.5681,-0.649528 0.41587,-0.415865 0.64953,-0.979978 0.64953,-1.5681 0,-0.588121 -0.23366,-1.152234 -0.64953,-1.568099 -0.41586,-0.415865 -0.97998,-0.649528 -1.5681,-0.649528 -0.58812,0 -1.15223,0.233663 -1.5681,0.649528 -0.41586,0.415865 -0.64952,0.979978 -0.64952,1.568099 0,0.588122 0.23366,1.152235 0.64952,1.5681 0.41587,0.415865 0.97998,0.649528 1.5681,0.649528 z"
         clip-path="url(#pedbbcfbb3d)"
         style="fill:#fca78b;stroke:#000000;stroke-width:0.2"
         id="path433" />
      <path
         d="m 177.93706,97.113419 c 0.62062,0 1.21591,-0.246575 1.65476,-0.68542 0.43884,-0.438845 0.68542,-1.034131 0.68542,-1.654752 0,-0.62062 -0.24658,-1.215906 -0.68542,-1.654751 -0.43885,-0.438845 -1.03414,-0.68542 -1.65476,-0.68542 -0.62062,0 -1.2159,0.246575 -1.65475,0.68542 -0.43884,0.438845 -0.68542,1.034131 -0.68542,1.654751 0,0.620621 0.24658,1.215907 0.68542,1.654752 0.43885,0.438845 1.03413,0.68542 1.65475,0.68542 z"
         clip-path="url(#pedbbcfbb3d)"
         style="fill:#f44d38;stroke:#000000;stroke-width:0.2"
         id="path435" />
      <path
         d="m 213.58602,95.001824 c 0.0606,0 0.11876,-0.02408 0.16162,-0.06695 0.0429,-0.04287 0.067,-0.101009 0.067,-0.161629 0,-0.06062 -0.0241,-0.118763 -0.067,-0.161628 -0.0429,-0.04286 -0.101,-0.06695 -0.16162,-0.06695 -0.0606,0 -0.11877,0.02408 -0.16163,0.06695 -0.0429,0.04286 -0.0669,0.101009 -0.0669,0.161628 0,0.06062 0.0241,0.118764 0.0669,0.161629 0.0429,0.04286 0.10101,0.06695 0.16163,0.06695 z"
         clip-path="url(#pedbbcfbb3d)"
         style="fill:#fee8dd;stroke:#000000;stroke-width:0.2"
         id="path437" />
      <path
         d="m 249.23497,95.008386 c 0.0624,0 0.12217,-0.02478 0.16627,-0.06887 0.0441,-0.04409 0.0689,-0.103909 0.0689,-0.166269 0,-0.06236 -0.0248,-0.122173 -0.0689,-0.166268 -0.0441,-0.04409 -0.10391,-0.06887 -0.16627,-0.06887 -0.0624,0 -0.12218,0.02478 -0.16627,0.06887 -0.0441,0.04409 -0.0689,0.103909 -0.0689,0.166268 0,0.06236 0.0248,0.122174 0.0689,0.166269 0.0441,0.04409 0.10391,0.06887 0.16627,0.06887 z"
         clip-path="url(#pedbbcfbb3d)"
         style="fill:#ffebe2;stroke:#000000;stroke-width:0.2"
         id="path439" />
      <path
         d="m 284.88392,98.263678 c 0.92567,0 1.81356,-0.367774 2.46811,-1.022323 0.65455,-0.65455 1.02232,-1.542434 1.02232,-2.468108 0,-0.925673 -0.36777,-1.813557 -1.02232,-2.468107 -0.65455,-0.65455 -1.54244,-1.022323 -2.46811,-1.022323 -0.92567,0 -1.81356,0.367773 -2.46811,1.022323 -0.65455,0.65455 -1.02232,1.542434 -1.02232,2.468107 0,0.925674 0.36777,1.813558 1.02232,2.468108 0.65455,0.654549 1.54244,1.022323 2.46811,1.022323 z"
         clip-path="url(#pedbbcfbb3d)"
         style="fill:#fb7050;stroke:#000000;stroke-width:0.2"
         id="path441" />
      <path
         d="m 106.63916,106.11648 c 0.0418,0 0.0819,-0.0166 0.11144,-0.0462 0.0296,-0.0296 0.0462,-0.0696 0.0462,-0.11143 0,-0.0418 -0.0166,-0.0819 -0.0462,-0.11144 -0.0296,-0.0296 -0.0696,-0.0462 -0.11144,-0.0462 -0.0418,0 -0.0819,0.0166 -0.11143,0.0462 -0.0296,0.0296 -0.0462,0.0696 -0.0462,0.11144 0,0.0418 0.0166,0.0819 0.0462,0.11143 0.0296,0.0296 0.0696,0.0462 0.11143,0.0462 z"
         clip-path="url(#pedbbcfbb3d)"
         style="fill:#fff0e8;stroke:#000000;stroke-width:0.2"
         id="path443" />
      <path
         d="m 142.28811,107.28276 c 0.3511,0 0.68786,-0.13949 0.93612,-0.38775 0.24827,-0.24826 0.38776,-0.58503 0.38776,-0.93612 0,-0.3511 -0.13949,-0.68786 -0.38776,-0.93612 -0.24826,-0.24827 -0.58502,-0.38776 -0.93612,-0.38776 -0.35109,0 -0.68786,0.13949 -0.93612,0.38776 -0.24826,0.24826 -0.38775,0.58502 -0.38775,0.93612 0,0.35109 0.13949,0.68786 0.38775,0.93612 0.24826,0.24826 0.58503,0.38775 0.93612,0.38775 z"
         clip-path="url(#pedbbcfbb3d)"
         style="fill:#fcbca2;stroke:#000000;stroke-width:0.2"
         id="path445" />
      <path
         d="m 177.93706,108.03317 c 0.55011,0 1.07776,-0.21856 1.46675,-0.60754 0.38898,-0.38899 0.60754,-0.91664 0.60754,-1.46674 0,-0.55011 -0.21856,-1.07776 -0.60754,-1.46675 -0.38899,-0.38898 -0.91664,-0.60754 -1.46675,-0.60754 -0.5501,0 -1.07775,0.21856 -1.46674,0.60754 -0.38898,0.38899 -0.60754,0.91664 -0.60754,1.46675 0,0.5501 0.21856,1.07775 0.60754,1.46674 0.38899,0.38898 0.91664,0.60754 1.46674,0.60754 z"
         clip-path="url(#pedbbcfbb3d)"
         style="fill:#a50f15;stroke:#000000;stroke-width:0.2"
         id="path447" />
      <path
         d="m 213.58602,106.55139 c 0.15713,0 0.30785,-0.0624 0.41896,-0.17354 0.11111,-0.11111 0.17354,-0.26183 0.17354,-0.41896 0,-0.15714 -0.0624,-0.30786 -0.17354,-0.41897 -0.11111,-0.11111 -0.26183,-0.17354 -0.41896,-0.17354 -0.15714,0 -0.30786,0.0624 -0.41897,0.17354 -0.11111,0.11111 -0.17354,0.26183 -0.17354,0.41897 0,0.15713 0.0624,0.30785 0.17354,0.41896 0.11111,0.11111 0.26183,0.17354 0.41897,0.17354 z"
         clip-path="url(#pedbbcfbb3d)"
         style="fill:#fb694a;stroke:#000000;stroke-width:0.2"
         id="path449" />
      <path
         d="m 249.23497,106.67586 c 0.19014,0 0.37252,-0.0756 0.50697,-0.21 0.13445,-0.13445 0.21,-0.31683 0.21,-0.50697 0,-0.19015 -0.0756,-0.37253 -0.21,-0.50698 -0.13445,-0.13445 -0.31683,-0.20999 -0.50697,-0.20999 -0.19015,0 -0.37253,0.0755 -0.50698,0.20999 -0.13445,0.13445 -0.20999,0.31683 -0.20999,0.50698 0,0.19014 0.0755,0.37252 0.20999,0.50697 0.13445,0.13445 0.31683,0.21 0.50698,0.21 z"
         clip-path="url(#pedbbcfbb3d)"
         style="fill:#fc7f5f;stroke:#000000;stroke-width:0.2"
         id="path451" />
      <path
         d="m 284.88392,108.65828 c 0.71589,0 1.40255,-0.28442 1.90876,-0.79063 0.50621,-0.50621 0.79064,-1.19288 0.79064,-1.90876 0,-0.71589 -0.28443,-1.40255 -0.79064,-1.90877 -0.50621,-0.5062 -1.19287,-0.79063 -1.90876,-0.79063 -0.71589,0 -1.40255,0.28443 -1.90876,0.79063 -0.50621,0.50622 -0.79064,1.19288 -0.79064,1.90877 0,0.71588 0.28443,1.40255 0.79064,1.90876 0.50621,0.50621 1.19287,0.79063 1.90876,0.79063 z"
         clip-path="url(#pedbbcfbb3d)"
         style="fill:#f14432;stroke:#000000;stroke-width:0.2"
         id="path453" />
      <path
         d="m 106.63916,120.61745 c 0.92103,0 1.80446,-0.36593 2.45573,-1.0172 0.65126,-0.65127 1.01719,-1.53469 1.01719,-2.45572 0,-0.92103 -0.36593,-1.80446 -1.01719,-2.45573 -0.65127,-0.65127 -1.5347,-1.01719 -2.45573,-1.01719 -0.92103,0 -1.80446,0.36592 -2.45572,1.01719 -0.65127,0.65127 -1.0172,1.5347 -1.0172,2.45573 0,0.92103 0.36593,1.80445 1.0172,2.45572 0.65126,0.65127 1.53469,1.0172 2.45572,1.0172 z"
         clip-path="url(#pedbbcfbb3d)"
         style="fill:#67000d;stroke:#000000;stroke-width:0.2"
         id="path455" />
      <path
         d="m 142.28811,120.70777 c 0.94499,0 1.85139,-0.37545 2.5196,-1.04365 0.6682,-0.66821 1.04364,-1.57461 1.04364,-2.51959 0,-0.94499 -0.37544,-1.85139 -1.04364,-2.5196 -0.66821,-0.6682 -1.57461,-1.04365 -2.5196,-1.04365 -0.94498,0 -1.85139,0.37545 -2.51959,1.04365 -0.6682,0.66821 -1.04365,1.57461 -1.04365,2.5196 0,0.94498 0.37545,1.85138 1.04365,2.51959 0.6682,0.6682 1.57461,1.04365 2.51959,1.04365 z"
         clip-path="url(#pedbbcfbb3d)"
         style="fill:#fcab8f;stroke:#000000;stroke-width:0.2"
         id="path457" />
      <path
         d="m 177.93706,122.00894 c 1.29006,0 2.52746,-0.51254 3.43967,-1.42475 0.9122,-0.91221 1.42475,-2.14961 1.42475,-3.43966 0,-1.29006 -0.51255,-2.52746 -1.42475,-3.43967 -0.91221,-0.91221 -2.14961,-1.42475 -3.43967,-1.42475 -1.29005,0 -2.52745,0.51254 -3.43966,1.42475 -0.91221,0.91221 -1.42475,2.14961 -1.42475,3.43967 0,1.29005 0.51254,2.52745 1.42475,3.43966 0.91221,0.91221 2.14961,1.42475 3.43966,1.42475 z"
         clip-path="url(#pedbbcfbb3d)"
         style="fill:#67000d;stroke:#000000;stroke-width:0.2"
         id="path459" />
      <path
         d="m 213.58602,118.31233 c 0.3097,0 0.60677,-0.12304 0.82576,-0.34204 0.219,-0.21899 0.34204,-0.51606 0.34204,-0.82576 0,-0.30971 -0.12304,-0.60677 -0.34204,-0.82577 -0.21899,-0.21899 -0.51606,-0.34204 -0.82576,-0.34204 -0.30971,0 -0.60677,0.12305 -0.82577,0.34204 -0.21899,0.219 -0.34204,0.51606 -0.34204,0.82577 0,0.3097 0.12305,0.60677 0.34204,0.82576 0.219,0.219 0.51606,0.34204 0.82577,0.34204 z"
         clip-path="url(#pedbbcfbb3d)"
         style="fill:#f5533b;stroke:#000000;stroke-width:0.2"
         id="path461" />
      <path
         d="m 249.23497,118.33092 c 0.31463,0 0.61642,-0.12501 0.8389,-0.34749 0.22249,-0.22248 0.34749,-0.52427 0.34749,-0.8389 0,-0.31464 -0.125,-0.61643 -0.34749,-0.83891 -0.22248,-0.22248 -0.52427,-0.34749 -0.8389,-0.34749 -0.31464,0 -0.61643,0.12501 -0.83891,0.34749 -0.22248,0.22248 -0.34749,0.52427 -0.34749,0.83891 0,0.31463 0.12501,0.61642 0.34749,0.8389 0.22248,0.22248 0.52427,0.34749 0.83891,0.34749 z"
         clip-path="url(#pedbbcfbb3d)"
         style="fill:#fc9c7d;stroke:#000000;stroke-width:0.2"
         id="path463" />
      <path
         d="m 284.88392,123.90971 c 1.79415,0 3.51505,-0.71283 4.7837,-1.98148 1.26866,-1.26865 1.98148,-2.98956 1.98148,-4.7837 0,-1.79415 -0.71282,-3.51506 -1.98148,-4.78371 -1.26865,-1.26865 -2.98955,-1.98148 -4.7837,-1.98148 -1.79415,0 -3.51505,0.71283 -4.78371,1.98148 -1.26865,1.26865 -1.98147,2.98956 -1.98147,4.78371 0,1.79414 0.71282,3.51505 1.98147,4.7837 1.26866,1.26865 2.98956,1.98148 4.78371,1.98148 z"
         clip-path="url(#pedbbcfbb3d)"
         style="fill:#af1117;stroke:#000000;stroke-width:0.2"
         id="path465" />
      <path
         d="m 106.63916,128.37904 c 0.013,0 0.0254,-0.005 0.0346,-0.0143 0.009,-0.009 0.0143,-0.0216 0.0143,-0.0346 0,-0.013 -0.005,-0.0254 -0.0143,-0.0346 -0.009,-0.009 -0.0216,-0.0143 -0.0346,-0.0143 -0.013,0 -0.0254,0.005 -0.0346,0.0143 -0.009,0.009 -0.0143,0.0216 -0.0143,0.0346 0,0.013 0.005,0.0254 0.0143,0.0346 0.009,0.009 0.0216,0.0143 0.0346,0.0143 z"
         clip-path="url(#pedbbcfbb3d)"
         style="fill:#fff4ef;stroke:#000000;stroke-width:0.2"
         id="path467" />
      <path
         d="m 142.28811,130.03533 c 0.45222,0 0.88597,-0.17966 1.20574,-0.49943 0.31977,-0.31976 0.49943,-0.75352 0.49943,-1.20574 0,-0.45221 -0.17966,-0.88597 -0.49943,-1.20573 -0.31977,-0.31977 -0.75352,-0.49944 -1.20574,-0.49944 -0.45221,0 -0.88597,0.17967 -1.20573,0.49944 -0.31977,0.31976 -0.49944,0.75352 -0.49944,1.20573 0,0.45222 0.17967,0.88598 0.49944,1.20574 0.31976,0.31977 0.75352,0.49943 1.20573,0.49943 z"
         clip-path="url(#pedbbcfbb3d)"
         style="fill:#fca98c;stroke:#000000;stroke-width:0.2"
         id="path469" />
      <path
         d="m 177.93706,129.74639 c 0.37559,0 0.73585,-0.14922 1.00143,-0.4148 0.26558,-0.26558 0.4148,-0.62584 0.4148,-1.00143 0,-0.37558 -0.14922,-0.73584 -0.4148,-1.00142 -0.26558,-0.26558 -0.62584,-0.4148 -1.00143,-0.4148 -0.37558,0 -0.73584,0.14922 -1.00142,0.4148 -0.26558,0.26558 -0.4148,0.62584 -0.4148,1.00142 0,0.37559 0.14922,0.73585 0.4148,1.00143 0.26558,0.26558 0.62584,0.4148 1.00142,0.4148 z"
         clip-path="url(#pedbbcfbb3d)"
         style="fill:#fc9474;stroke:#000000;stroke-width:0.2"
         id="path471" />
      <path
         d="m 213.58602,129.60061 c 0.33692,0 0.6601,-0.13386 0.89834,-0.3721 0.23824,-0.23825 0.3721,-0.56142 0.3721,-0.89835 0,-0.33692 -0.13386,-0.6601 -0.3721,-0.89834 -0.23824,-0.23824 -0.56142,-0.3721 -0.89834,-0.3721 -0.33693,0 -0.6601,0.13386 -0.89835,0.3721 -0.23824,0.23824 -0.3721,0.56142 -0.3721,0.89834 0,0.33693 0.13386,0.6601 0.3721,0.89835 0.23825,0.23824 0.56142,0.3721 0.89835,0.3721 z"
         clip-path="url(#pedbbcfbb3d)"
         style="fill:#67000d;stroke:#000000;stroke-width:0.2"
         id="path473" />
      <path
         d="m 249.23497,129.84083 c 0.40063,0 0.78491,-0.15917 1.0682,-0.44246 0.28329,-0.28329 0.44246,-0.66757 0.44246,-1.06821 0,-0.40063 -0.15917,-0.78491 -0.44246,-1.0682 -0.28329,-0.28329 -0.66757,-0.44246 -1.0682,-0.44246 -0.40064,0 -0.78491,0.15917 -1.0682,0.44246 -0.28329,0.28329 -0.44247,0.66757 -0.44247,1.0682 0,0.40064 0.15918,0.78492 0.44247,1.06821 0.28329,0.28329 0.66756,0.44246 1.0682,0.44246 z"
         clip-path="url(#pedbbcfbb3d)"
         style="fill:#67000d;stroke:#000000;stroke-width:0.2"
         id="path475" />
      <path
         d="m 284.88392,132.14014 c 1.01042,0 1.97959,-0.40144 2.69406,-1.11592 0.71447,-0.71447 1.11592,-1.68364 1.11592,-2.69406 0,-1.01041 -0.40145,-1.97958 -1.11592,-2.69406 -0.71447,-0.71447 -1.68364,-1.11591 -2.69406,-1.11591 -1.01042,0 -1.97959,0.40144 -2.69406,1.11591 -0.71447,0.71448 -1.11592,1.68365 -1.11592,2.69406 0,1.01042 0.40145,1.97959 1.11592,2.69406 0.71447,0.71448 1.68364,1.11592 2.69406,1.11592 z"
         clip-path="url(#pedbbcfbb3d)"
         style="fill:#67000d;stroke:#000000;stroke-width:0.2"
         id="path477" />
      <path
         d="m 106.63916,139.59553 c 0.0211,0 0.0414,-0.008 0.0564,-0.0233 0.0149,-0.0149 0.0234,-0.0352 0.0234,-0.0564 0,-0.0211 -0.008,-0.0414 -0.0234,-0.0564 -0.0149,-0.015 -0.0352,-0.0234 -0.0564,-0.0234 -0.0211,0 -0.0414,0.008 -0.0564,0.0234 -0.0149,0.0149 -0.0233,0.0352 -0.0233,0.0564 0,0.0211 0.008,0.0414 0.0233,0.0564 0.015,0.0149 0.0352,0.0233 0.0564,0.0233 z"
         clip-path="url(#pedbbcfbb3d)"
         style="fill:#fff5f0;stroke:#000000;stroke-width:0.2"
         id="path479" />
      <path
         d="m 142.28811,142.03711 c 0.66866,0 1.31002,-0.26566 1.78283,-0.73848 0.47282,-0.47281 0.73848,-1.11417 0.73848,-1.78283 0,-0.66865 -0.26566,-1.31001 -0.73848,-1.78283 -0.47281,-0.47281 -1.11417,-0.73847 -1.78283,-0.73847 -0.66866,0 -1.31002,0.26566 -1.78283,0.73847 -0.47281,0.47282 -0.73847,1.11418 -0.73847,1.78283 0,0.66866 0.26566,1.31002 0.73847,1.78283 0.47281,0.47282 1.11417,0.73848 1.78283,0.73848 z"
         clip-path="url(#pedbbcfbb3d)"
         style="fill:#fedfd0;stroke:#000000;stroke-width:0.2"
         id="path481" />
      <path
         d="m 177.93706,141.72806 c 0.5867,0 1.14945,-0.2331 1.5643,-0.64796 0.41486,-0.41485 0.64796,-0.9776 0.64796,-1.5643 0,-0.58669 -0.2331,-1.14944 -0.64796,-1.56429 -0.41485,-0.41486 -0.9776,-0.64796 -1.5643,-0.64796 -0.58669,0 -1.14944,0.2331 -1.56429,0.64796 -0.41486,0.41485 -0.64796,0.9776 -0.64796,1.56429 0,0.5867 0.2331,1.14945 0.64796,1.5643 0.41485,0.41486 0.9776,0.64796 1.56429,0.64796 z"
         clip-path="url(#pedbbcfbb3d)"
         style="fill:#fca689;stroke:#000000;stroke-width:0.2"
         id="path483" />
      <path
         d="m 213.58602,140.24139 c 0.19242,0 0.377,-0.0764 0.51306,-0.21252 0.13607,-0.13607 0.21252,-0.32064 0.21252,-0.51307 0,-0.19242 -0.0764,-0.377 -0.21252,-0.51306 -0.13606,-0.13607 -0.32064,-0.21252 -0.51306,-0.21252 -0.19243,0 -0.37701,0.0764 -0.51307,0.21252 -0.13607,0.13606 -0.21252,0.32064 -0.21252,0.51306 0,0.19243 0.0764,0.377 0.21252,0.51307 0.13606,0.13607 0.32064,0.21252 0.51307,0.21252 z"
         clip-path="url(#pedbbcfbb3d)"
         style="fill:#fcc1a8;stroke:#000000;stroke-width:0.2"
         id="path485" />
      <path
         d="m 249.23497,141.01498 c 0.39758,0 0.77894,-0.15796 1.06008,-0.4391 0.28113,-0.28113 0.43909,-0.66249 0.43909,-1.06008 0,-0.39758 -0.15796,-0.77894 -0.43909,-1.06007 -0.28114,-0.28114 -0.6625,-0.4391 -1.06008,-0.4391 -0.39759,0 -0.77894,0.15796 -1.06008,0.4391 -0.28114,0.28113 -0.4391,0.66249 -0.4391,1.06007 0,0.39759 0.15796,0.77895 0.4391,1.06008 0.28114,0.28114 0.66249,0.4391 1.06008,0.4391 z"
         clip-path="url(#pedbbcfbb3d)"
         style="fill:#fc8060;stroke:#000000;stroke-width:0.2"
         id="path487" />
      <path
         d="m 284.88392,143.66034 c 1.09914,0 2.15342,-0.43669 2.93063,-1.2139 0.77722,-0.77722 1.21391,-1.83149 1.21391,-2.93064 0,-1.09914 -0.43669,-2.15342 -1.21391,-2.93063 -0.77721,-0.77721 -1.83149,-1.21391 -2.93063,-1.21391 -1.09914,0 -2.15342,0.4367 -2.93063,1.21391 -0.77722,0.77721 -1.21391,1.83149 -1.21391,2.93063 0,1.09915 0.43669,2.15342 1.21391,2.93064 0.77721,0.77721 1.83149,1.2139 2.93063,1.2139 z"
         clip-path="url(#pedbbcfbb3d)"
         style="fill:#fc9777;stroke:#000000;stroke-width:0.2"
         id="path489" />
      <path
         d="m 106.63916,150.82962 c 0.034,0 0.0666,-0.0135 0.0906,-0.0375 0.024,-0.024 0.0375,-0.0566 0.0375,-0.0906 0,-0.034 -0.0135,-0.0666 -0.0375,-0.0906 -0.024,-0.024 -0.0566,-0.0375 -0.0906,-0.0375 -0.034,0 -0.0666,0.0135 -0.0906,0.0375 -0.024,0.024 -0.0375,0.0566 -0.0375,0.0906 0,0.034 0.0135,0.0666 0.0375,0.0906 0.024,0.024 0.0567,0.0375 0.0906,0.0375 z"
         clip-path="url(#pedbbcfbb3d)"
         style="fill:#fff4ee;stroke:#000000;stroke-width:0.2"
         id="path491" />
      <path
         d="m 142.28811,155.39231 c 1.24403,0 2.43728,-0.49426 3.31694,-1.37393 0.87967,-0.87966 1.37393,-2.07291 1.37393,-3.31694 0,-1.24403 -0.49426,-2.43728 -1.37393,-3.31694 -0.87966,-0.87966 -2.07291,-1.37392 -3.31694,-1.37392 -1.24403,0 -2.43728,0.49426 -3.31694,1.37392 -0.87966,0.87966 -1.37392,2.07291 -1.37392,3.31694 0,1.24403 0.49426,2.43728 1.37392,3.31694 0.87966,0.87967 2.07291,1.37393 3.31694,1.37393 z"
         clip-path="url(#pedbbcfbb3d)"
         style="fill:#67000d;stroke:#000000;stroke-width:0.2"
         id="path493" />
      <path
         d="m 177.93706,152.7402 c 0.54069,0 1.0593,-0.21482 1.44162,-0.59714 0.38233,-0.38232 0.59714,-0.90093 0.59714,-1.44162 0,-0.54068 -0.21481,-1.05929 -0.59714,-1.44162 -0.38232,-0.38232 -0.90093,-0.59713 -1.44162,-0.59713 -0.54068,0 -1.05929,0.21481 -1.44161,0.59713 -0.38233,0.38233 -0.59714,0.90094 -0.59714,1.44162 0,0.54069 0.21481,1.0593 0.59714,1.44162 0.38232,0.38232 0.90093,0.59714 1.44161,0.59714 z"
         clip-path="url(#pedbbcfbb3d)"
         style="fill:#fcaa8d;stroke:#000000;stroke-width:0.2"
         id="path495" />
      <path
         d="m 213.58602,150.82962 c 0.034,0 0.0666,-0.0135 0.0906,-0.0375 0.024,-0.024 0.0376,-0.0566 0.0376,-0.0906 0,-0.034 -0.0135,-0.0666 -0.0376,-0.0906 -0.024,-0.024 -0.0566,-0.0375 -0.0906,-0.0375 -0.034,0 -0.0666,0.0135 -0.0906,0.0375 -0.024,0.024 -0.0375,0.0566 -0.0375,0.0906 0,0.034 0.0135,0.0666 0.0375,0.0906 0.024,0.024 0.0566,0.0375 0.0906,0.0375 z"
         clip-path="url(#pedbbcfbb3d)"
         style="fill:#fff2eb;stroke:#000000;stroke-width:0.2"
         id="path497" />
      <path
         d="m 249.23497,150.99363 c 0.0775,0 0.15181,-0.0308 0.20661,-0.0856 0.0548,-0.0548 0.0856,-0.12912 0.0856,-0.20661 0,-0.0775 -0.0308,-0.15181 -0.0856,-0.2066 -0.0548,-0.0548 -0.12912,-0.0856 -0.20661,-0.0856 -0.0775,0 -0.15182,0.0308 -0.20661,0.0856 -0.0548,0.0548 -0.0856,0.12911 -0.0856,0.2066 0,0.0775 0.0308,0.15182 0.0856,0.20661 0.0548,0.0548 0.12912,0.0856 0.20661,0.0856 z"
         clip-path="url(#pedbbcfbb3d)"
         style="fill:#ffefe8;stroke:#000000;stroke-width:0.2"
         id="path499" />
      <path
         d="m 284.88392,153.53358 c 0.75109,0 1.47152,-0.29841 2.00262,-0.82951 0.5311,-0.53111 0.82952,-1.25154 0.82952,-2.00263 0,-0.75109 -0.29842,-1.47152 -0.82952,-2.00262 -0.5311,-0.5311 -1.25153,-0.82951 -2.00262,-0.82951 -0.75109,0 -1.47152,0.29841 -2.00262,0.82951 -0.53111,0.5311 -0.82952,1.25153 -0.82952,2.00262 0,0.75109 0.29841,1.47152 0.82952,2.00263 0.5311,0.5311 1.25153,0.82951 2.00262,0.82951 z"
         clip-path="url(#pedbbcfbb3d)"
         style="fill:#fdc7b2;stroke:#000000;stroke-width:0.2"
         id="path501" />
      <path
         d="m 106.63916,162.014 c 0.0337,0 0.0659,-0.0134 0.0897,-0.0372 0.0238,-0.0238 0.0372,-0.0561 0.0372,-0.0897 0,-0.0337 -0.0134,-0.0659 -0.0372,-0.0897 -0.0238,-0.0238 -0.0561,-0.0372 -0.0897,-0.0372 -0.0337,0 -0.0659,0.0134 -0.0897,0.0372 -0.0238,0.0238 -0.0372,0.0561 -0.0372,0.0897 0,0.0337 0.0134,0.0659 0.0372,0.0897 0.0238,0.0238 0.0561,0.0372 0.0897,0.0372 z"
         clip-path="url(#pedbbcfbb3d)"
         style="fill:#fff4ef;stroke:#000000;stroke-width:0.2"
         id="path503" />
      <path
         d="m 142.28811,163.47309 c 0.42062,0 0.82406,-0.16711 1.12148,-0.46453 0.29742,-0.29742 0.46453,-0.70086 0.46453,-1.12148 0,-0.42061 -0.16711,-0.82405 -0.46453,-1.12147 -0.29742,-0.29742 -0.70086,-0.46453 -1.12148,-0.46453 -0.42061,0 -0.82405,0.16711 -1.12147,0.46453 -0.29742,0.29742 -0.46453,0.70086 -0.46453,1.12147 0,0.42062 0.16711,0.82406 0.46453,1.12148 0.29742,0.29742 0.70086,0.46453 1.12147,0.46453 z"
         clip-path="url(#pedbbcfbb3d)"
         style="fill:#fff5f0;stroke:#000000;stroke-width:0.2"
         id="path505" />
      <path
         d="m 177.93706,163.13209 c 0.33018,0 0.64688,-0.13119 0.88035,-0.36466 0.23348,-0.23347 0.36466,-0.55017 0.36466,-0.88035 0,-0.33018 -0.13118,-0.64688 -0.36466,-0.88035 -0.23347,-0.23347 -0.55017,-0.36465 -0.88035,-0.36465 -0.33017,0 -0.64687,0.13118 -0.88035,0.36465 -0.23347,0.23347 -0.36465,0.55017 -0.36465,0.88035 0,0.33018 0.13118,0.64688 0.36465,0.88035 0.23348,0.23347 0.55018,0.36466 0.88035,0.36466 z"
         clip-path="url(#pedbbcfbb3d)"
         style="fill:#fdd5c4;stroke:#000000;stroke-width:0.2"
         id="path507" />
      <path
         d="m 213.58602,162.014 c 0.0337,0 0.0659,-0.0134 0.0897,-0.0372 0.0238,-0.0238 0.0372,-0.0561 0.0372,-0.0897 0,-0.0337 -0.0134,-0.0659 -0.0372,-0.0897 -0.0238,-0.0238 -0.0561,-0.0372 -0.0897,-0.0372 -0.0337,0 -0.0659,0.0134 -0.0897,0.0372 -0.0238,0.0238 -0.0372,0.0561 -0.0372,0.0897 0,0.0337 0.0134,0.0659 0.0372,0.0897 0.0238,0.0238 0.0561,0.0372 0.0897,0.0372 z"
         clip-path="url(#pedbbcfbb3d)"
         style="fill:#fff5f0;stroke:#000000;stroke-width:0.2"
         id="path509" />
      <path
         d="m 249.23497,162.10052 c 0.0566,0 0.1109,-0.0225 0.15092,-0.0625 0.04,-0.04 0.0625,-0.0943 0.0625,-0.15093 0,-0.0566 -0.0225,-0.1109 -0.0625,-0.15092 -0.04,-0.04 -0.0943,-0.0625 -0.15092,-0.0625 -0.0566,0 -0.1109,0.0225 -0.15093,0.0625 -0.04,0.04 -0.0625,0.0943 -0.0625,0.15092 0,0.0566 0.0225,0.1109 0.0625,0.15093 0.04,0.04 0.0943,0.0625 0.15093,0.0625 z"
         clip-path="url(#pedbbcfbb3d)"
         style="fill:#fff4ee;stroke:#000000;stroke-width:0.2"
         id="path511" />
      <path
         d="m 284.88392,162.85441 c 0.25654,0 0.5026,-0.10192 0.684,-0.28332 0.18141,-0.1814 0.28333,-0.42747 0.28333,-0.68401 0,-0.25654 -0.10192,-0.5026 -0.28333,-0.684 -0.1814,-0.1814 -0.42746,-0.28333 -0.684,-0.28333 -0.25654,0 -0.50261,0.10193 -0.68401,0.28333 -0.1814,0.1814 -0.28332,0.42746 -0.28332,0.684 0,0.25654 0.10192,0.50261 0.28332,0.68401 0.1814,0.1814 0.42747,0.28332 0.68401,0.28332 z"
         clip-path="url(#pedbbcfbb3d)"
         style="fill:#fff5f0;stroke:#000000;stroke-width:0.2"
         id="path513" />
      <path
         d="m 106.63916,173.07272 c 0,0 0,0 0,0 0,0 0,0 0,0 0,0 0,0 0,0 0,0 0,0 0,0 0,0 0,0 0,0 0,0 0,0 0,0 0,0 0,0 0,0 0,0 0,0 0,0 z"
         clip-path="url(#pedbbcfbb3d)"
         style="fill:#fff5f0;stroke:#000000;stroke-width:0.2"
         id="path515" />
      <path
         d="m 142.28811,175.31213 c 0.5939,0 1.16356,-0.23596 1.58351,-0.65591 0.41994,-0.41995 0.6559,-0.9896 0.6559,-1.5835 0,-0.5939 -0.23596,-1.16355 -0.6559,-1.5835 -0.41995,-0.41995 -0.98961,-0.65591 -1.58351,-0.65591 -0.5939,0 -1.16355,0.23596 -1.5835,0.65591 -0.41995,0.41995 -0.65591,0.9896 -0.65591,1.5835 0,0.5939 0.23596,1.16355 0.65591,1.5835 0.41995,0.41995 0.9896,0.65591 1.5835,0.65591 z"
         clip-path="url(#pedbbcfbb3d)"
         style="fill:#fdd0bc;stroke:#000000;stroke-width:0.2"
         id="path517" />
      <path
         d="m 177.93706,174.63295 c 0.41378,0 0.81067,-0.16439 1.10325,-0.45698 0.29259,-0.29258 0.45699,-0.68947 0.45699,-1.10325 0,-0.41378 -0.1644,-0.81066 -0.45699,-1.10325 -0.29258,-0.29258 -0.68947,-0.45698 -1.10325,-0.45698 -0.41377,0 -0.81066,0.1644 -1.10325,0.45698 -0.29258,0.29259 -0.45698,0.68947 -0.45698,1.10325 0,0.41378 0.1644,0.81067 0.45698,1.10325 0.29259,0.29259 0.68948,0.45698 1.10325,0.45698 z"
         clip-path="url(#pedbbcfbb3d)"
         style="fill:#fc9474;stroke:#000000;stroke-width:0.2"
         id="path519" />
      <path
         d="m 213.58602,173.82928 c 0.20064,0 0.39309,-0.0797 0.53496,-0.22159 0.14188,-0.14188 0.22159,-0.33433 0.22159,-0.53497 0,-0.20064 -0.0797,-0.39309 -0.22159,-0.53497 -0.14187,-0.14187 -0.33432,-0.22159 -0.53496,-0.22159 -0.20065,0 -0.3931,0.0797 -0.53497,0.22159 -0.14188,0.14188 -0.22159,0.33433 -0.22159,0.53497 0,0.20064 0.0797,0.39309 0.22159,0.53497 0.14187,0.14187 0.33432,0.22159 0.53497,0.22159 z"
         clip-path="url(#pedbbcfbb3d)"
         style="fill:#fca183;stroke:#000000;stroke-width:0.2"
         id="path521" />
      <path
         d="m 249.23497,173.96711 c 0.23719,0 0.4647,-0.0942 0.63242,-0.26196 0.16772,-0.16772 0.26196,-0.39524 0.26196,-0.63243 0,-0.23719 -0.0942,-0.4647 -0.26196,-0.63242 -0.16772,-0.16773 -0.39523,-0.26196 -0.63242,-0.26196 -0.2372,0 -0.46471,0.0942 -0.63243,0.26196 -0.16772,0.16772 -0.26196,0.39523 -0.26196,0.63242 0,0.23719 0.0942,0.46471 0.26196,0.63243 0.16772,0.16772 0.39523,0.26196 0.63243,0.26196 z"
         clip-path="url(#pedbbcfbb3d)"
         style="fill:#fcc4ad;stroke:#000000;stroke-width:0.2"
         id="path523" />
      <path
         d="m 284.88392,175.21259 c 0.5675,0 1.11183,-0.22547 1.51312,-0.62675 0.40128,-0.40129 0.62675,-0.94562 0.62675,-1.51312 0,-0.5675 -0.22547,-1.11183 -0.62675,-1.51311 -0.40129,-0.40129 -0.94562,-0.62676 -1.51312,-0.62676 -0.5675,0 -1.11183,0.22547 -1.51312,0.62676 -0.40128,0.40128 -0.62675,0.94561 -0.62675,1.51311 0,0.5675 0.22547,1.11183 0.62675,1.51312 0.40129,0.40128 0.94562,0.62675 1.51312,0.62675 z"
         clip-path="url(#pedbbcfbb3d)"
         style="fill:#fedaca;stroke:#000000;stroke-width:0.2"
         id="path525" />
      <path
         d="m 106.63916,184.25836 c 0,0 0,0 0,0 0,0 0,0 0,0 0,0 0,0 0,0 0,0 0,0 0,0 0,0 0,0 0,0 0,0 0,0 0,0 0,0 0,0 0,0 0,0 0,0 0,0 z"
         clip-path="url(#pedbbcfbb3d)"
         style="fill:#fff5f0;stroke:#000000;stroke-width:0.2"
         id="path527" />
      <path
         d="m 142.28811,186.13099 c 0.49663,0 0.97298,-0.19731 1.32415,-0.54848 0.35117,-0.35117 0.54848,-0.82752 0.54848,-1.32415 0,-0.49663 -0.19731,-0.97298 -0.54848,-1.32415 -0.35117,-0.35117 -0.82752,-0.54848 -1.32415,-0.54848 -0.49662,0 -0.97298,0.19731 -1.32415,0.54848 -0.35117,0.35117 -0.54848,0.82752 -0.54848,1.32415 0,0.49663 0.19731,0.97298 0.54848,1.32415 0.35117,0.35117 0.82753,0.54848 1.32415,0.54848 z"
         clip-path="url(#pedbbcfbb3d)"
         style="fill:#fc9e80;stroke:#000000;stroke-width:0.2"
         id="path529" />
      <path
         d="m 177.93706,184.25836 c 0,0 0,0 0,0 0,0 0,0 0,0 0,0 0,0 0,0 0,0 0,0 0,0 0,0 0,0 0,0 0,0 0,0 0,0 0,0 0,0 0,0 0,0 0,0 0,0 z"
         clip-path="url(#pedbbcfbb3d)"
         style="fill:#fff5f0;stroke:#000000;stroke-width:0.2"
         id="path531" />
      <path
         d="m 213.58602,184.25836 c 0,0 0,0 0,0 0,0 0,0 0,0 0,0 0,0 0,0 0,0 0,0 0,0 0,0 0,0 0,0 0,0 0,0 0,0 0,0 0,0 0,0 0,0 0,0 0,0 z"
         clip-path="url(#pedbbcfbb3d)"
         style="fill:#fff5f0;stroke:#000000;stroke-width:0.2"
         id="path533" />
      <path
         d="m 249.23497,184.25836 c 0,0 0,0 0,0 0,0 0,0 0,0 0,0 0,0 0,0 0,0 0,0 0,0 0,0 0,0 0,0 0,0 0,0 0,0 0,0 0,0 0,0 0,0 0,0 0,0 z"
         clip-path="url(#pedbbcfbb3d)"
         style="fill:#fff5f0;stroke:#000000;stroke-width:0.2"
         id="path535" />
      <path
         d="m 284.88392,184.81841 c 0.14853,0 0.29099,-0.059 0.39601,-0.16404 0.10503,-0.10502 0.16404,-0.24748 0.16404,-0.39601 0,-0.14853 -0.059,-0.29099 -0.16404,-0.39601 -0.10502,-0.10503 -0.24748,-0.16404 -0.39601,-0.16404 -0.14853,0 -0.29099,0.059 -0.39601,0.16404 -0.10503,0.10502 -0.16404,0.24748 -0.16404,0.39601 0,0.14853 0.059,0.29099 0.16404,0.39601 0.10502,0.10503 0.24748,0.16404 0.39601,0.16404 z"
         clip-path="url(#pedbbcfbb3d)"
         style="fill:#fff4ee;stroke:#000000;stroke-width:0.2"
         id="path537" />
    </g>
    <g
       id="matplotlib.axis_5"
       transform="translate(-21.637897,3.5084461)">
      <g
         id="xtick_11">
        <g
           id="line2d_11">
          <g
             id="g542">
            <path
               id="use540"
               d="m 106.63916,195.444 v 3.5"
               style="stroke:#000000;stroke-width:0.8" />
          </g>
        </g>
      </g>
      <g
         id="xtick_12">
        <g
           id="line2d_12">
          <g
             id="g596">
            <path
               id="use594"
               d="m 142.28812,195.444 v 3.5"
               style="stroke:#000000;stroke-width:0.8" />
          </g>
        </g>
      </g>
      <g
         id="xtick_13">
        <g
           id="line2d_13">
          <g
             id="g641">
            <path
               id="use639"
               d="m 177.93706,195.444 v 3.5"
               style="stroke:#000000;stroke-width:0.8" />
          </g>
        </g>
      </g>
      <g
         id="xtick_14">
        <g
           id="line2d_14">
          <g
             id="g686">
            <path
               id="use684"
               d="m 213.58601,195.444 v 3.5"
               style="stroke:#000000;stroke-width:0.8" />
          </g>
        </g>
      </g>
      <g
         id="xtick_15">
        <g
           id="line2d_15">
          <g
             id="g731">
            <path
               id="use729"
               d="m 249.23497,195.444 v 3.5"
               style="stroke:#000000;stroke-width:0.8" />
          </g>
        </g>
      </g>
      <g
         id="xtick_16">
        <g
           id="line2d_16">
          <g
             id="g776">
            <path
               id="use774"
               d="m 284.88391,195.444 v 3.5"
               style="stroke:#000000;stroke-width:0.8" />
          </g>
        </g>
      </g>
    </g>
    <g
       id="matplotlib.axis_6"
       transform="translate(-21.637897,3.5084461)">
      <g
         id="ytick_3">
        <g
           id="line2d_17">
          <defs
             id="defs821">
            <path
               id="m023d93ce53"
               d="M 0,0 H -3.5"
               style="stroke:#000000;stroke-width:0.8" />
          </defs>
          <g
             id="g825">
            <use
               xlink:href="#m023d93ce53"
               x="78.120003"
               y="72.40197"
               style="stroke:#000000;stroke-width:0.8"
               id="use823"
               width="100%"
               height="100%" />
          </g>
        </g>
        <g
           id="text_21">
          <!-- 0 -->
          <g
             transform="matrix(0.0833,0,0,-0.0833,65.820037,75.566718)"
             id="g830">
            <path
               id="use828"
               d="m 31.78125,66.40625 q -7.609375,0 -11.453125,-7.5 Q 16.5,51.421875 16.5,36.375 q 0,-14.984375 3.828125,-22.484375 3.84375,-7.5 11.453125,-7.5 7.671875,0 11.5,7.5 3.84375,7.5 3.84375,22.484375 0,15.046875 -3.84375,22.53125 -3.828125,7.5 -11.5,7.5 z m 0,7.8125 q 12.265625,0 18.734375,-9.703125 6.46875,-9.6875 6.46875,-28.140625 0,-18.40625 -6.46875,-28.109375 -6.46875,-9.6875 -18.734375,-9.6875 -12.25,0 -18.71875,9.6875 Q 6.59375,17.96875 6.59375,36.375 q 0,18.453125 6.46875,28.140625 6.46875,9.703125 18.71875,9.703125 z"
               style="stroke-width:0.015625" />
          </g>
        </g>
      </g>
      <g
         id="ytick_4">
        <g
           id="line2d_18">
          <g
             id="g836">
            <use
               xlink:href="#m023d93ce53"
               x="78.120003"
               y="83.587608"
               style="stroke:#000000;stroke-width:0.8"
               id="use834"
               width="100%"
               height="100%" />
          </g>
        </g>
        <g
           id="text_22">
          <!-- 1 -->
          <g
             transform="matrix(0.0833,0,0,-0.0833,65.820037,86.752357)"
             id="g841">
            <path
               id="use839"
               d="m 12.40625,8.296875 h 16.109375 v 55.625 L 10.984375,60.40625 v 8.984375 l 17.4375,3.515625 H 38.28125 V 8.296875 H 54.390625 V 0 H 12.40625 Z"
               style="stroke-width:0.015625" />
          </g>
        </g>
      </g>
      <g
         id="ytick_5">
        <g
           id="line2d_19">
          <g
             id="g847">
            <use
               xlink:href="#m023d93ce53"
               x="78.120003"
               y="94.773247"
               style="stroke:#000000;stroke-width:0.8"
               id="use845"
               width="100%"
               height="100%" />
          </g>
        </g>
        <g
           id="text_23">
          <!-- 2 -->
          <g
             transform="matrix(0.0833,0,0,-0.0833,65.820037,97.937997)"
             id="g852">
            <path
               id="use850"
               d="M 19.1875,8.296875 H 53.609375 V 0 H 7.328125 v 8.296875 q 5.609375,5.8125 15.296875,15.59375 9.703125,9.796875 12.1875,12.640625 4.734375,5.3125 6.609375,9 1.890625,3.6875 1.890625,7.25 0,5.8125 -4.078125,9.46875 -4.078125,3.671875 -10.625,3.671875 -4.640625,0 -9.796875,-1.609375 -5.140625,-1.609375 -11,-4.890625 v 9.96875 Q 13.765625,71.78125 18.9375,73 q 5.1875,1.21875 9.484375,1.21875 11.328125,0 18.0625,-5.671875 6.734375,-5.65625 6.734375,-15.125 0,-4.5 -1.6875,-8.53125 Q 49.859375,40.875 45.40625,35.40625 44.1875,33.984375 37.640625,27.21875 31.109375,20.453125 19.1875,8.296875 Z"
               style="stroke-width:0.015625" />
          </g>
        </g>
      </g>
      <g
         id="ytick_6">
        <g
           id="line2d_20">
          <g
             id="g858">
            <use
               xlink:href="#m023d93ce53"
               x="78.120003"
               y="105.95889"
               style="stroke:#000000;stroke-width:0.8"
               id="use856"
               width="100%"
               height="100%" />
          </g>
        </g>
        <g
           id="text_24">
          <!-- 3 -->
          <g
             transform="matrix(0.0833,0,0,-0.0833,65.820037,109.12364)"
             id="g863">
            <path
               id="use861"
               d="M 40.578125,39.3125 Q 47.65625,37.796875 51.625,33 q 3.984375,-4.78125 3.984375,-11.8125 0,-10.78125 -7.421875,-16.703125 -7.421875,-5.90625 -21.09375,-5.90625 -4.578125,0 -9.4375,0.90625 -4.859375,0.90625 -10.03125,2.71875 v 9.515625 q 4.09375,-2.390625 8.96875,-3.609375 4.890625,-1.21875 10.21875,-1.21875 9.265625,0 14.125,3.65625 4.859375,3.65625 4.859375,10.640625 0,6.453125 -4.515625,10.078125 -4.515625,3.640625 -12.5625,3.640625 h -8.5 v 8.109375 h 8.890625 q 7.265625,0 11.125,2.90625 3.859375,2.90625 3.859375,8.375 0,5.609375 -3.984375,8.609375 -3.96875,3.015625 -11.390625,3.015625 -4.0625,0 -8.703125,-0.890625 Q 15.375,64.15625 9.8125,62.3125 v 8.78125 q 5.625,1.5625 10.53125,2.34375 4.90625,0.78125 9.25,0.78125 11.234375,0 17.765625,-5.109375 6.546875,-5.09375 6.546875,-13.78125 0,-6.0625 -3.46875,-10.234375 -3.46875,-4.171875 -9.859375,-5.78125 z"
               style="stroke-width:0.015625" />
          </g>
        </g>
      </g>
      <g
         id="ytick_7">
        <g
           id="line2d_21">
          <g
             id="g869">
            <use
               xlink:href="#m023d93ce53"
               x="78.120003"
               y="117.14452"
               style="stroke:#000000;stroke-width:0.8"
               id="use867"
               width="100%"
               height="100%" />
          </g>
        </g>
        <g
           id="text_25">
          <!-- 4 -->
          <g
             transform="matrix(0.0833,0,0,-0.0833,65.820037,120.30928)"
             id="g874">
            <path
               id="use872"
               d="M 37.796875,64.3125 12.890625,25.390625 h 24.90625 z m -2.59375,8.59375 h 12.40625 V 25.390625 h 10.40625 V 17.1875 H 47.609375 V 0 h -9.8125 V 17.1875 H 4.890625 v 9.515625 z"
               style="stroke-width:0.015625" />
          </g>
        </g>
      </g>
      <g
         id="ytick_8">
        <g
           id="line2d_22">
          <g
             id="g880">
            <use
               xlink:href="#m023d93ce53"
               x="78.120003"
               y="128.33017"
               style="stroke:#000000;stroke-width:0.8"
               id="use878"
               width="100%"
               height="100%" />
          </g>
        </g>
        <g
           id="text_26">
          <!-- 5 -->
          <g
             transform="matrix(0.0833,0,0,-0.0833,65.820037,131.49491)"
             id="g885">
            <path
               id="use883"
               d="m 10.796875,72.90625 h 38.71875 v -8.3125 h -29.6875 V 46.734375 q 2.140625,0.734375 4.28125,1.09375 2.15625,0.359375 4.3125,0.359375 Q 40.625,48.1875 47.75,41.5 54.890625,34.8125 54.890625,23.390625 54.890625,11.625 47.5625,5.09375 40.234375,-1.421875 26.90625,-1.421875 q -4.59375,0 -9.359375,0.78125 -4.75,0.78125 -9.828125,2.34375 V 11.625 q 4.390625,-2.390625 9.078125,-3.5625 4.6875,-1.171875 9.90625,-1.171875 8.453125,0 13.375,4.4375 4.9375,4.4375 4.9375,12.0625 0,7.609375 -4.9375,12.046875 -4.921875,4.453125 -13.375,4.453125 -3.953125,0 -7.890625,-0.875 -3.921875,-0.875 -8.015625,-2.734375 z"
               style="stroke-width:0.015625" />
          </g>
        </g>
      </g>
      <g
         id="ytick_9">
        <g
           id="line2d_23">
          <g
             id="g891">
            <use
               xlink:href="#m023d93ce53"
               x="78.120003"
               y="139.51581"
               style="stroke:#000000;stroke-width:0.8"
               id="use889"
               width="100%"
               height="100%" />
          </g>
        </g>
        <g
           id="text_27">
          <!-- 6 -->
          <g
             transform="matrix(0.0833,0,0,-0.0833,65.820037,142.68055)"
             id="g896">
            <path
               id="use894"
               d="m 33.015625,40.375 q -6.640625,0 -10.53125,-4.546875 -3.875,-4.53125 -3.875,-12.4375 0,-7.859375 3.875,-12.4375 3.890625,-4.5625 10.53125,-4.5625 6.640625,0 10.515625,4.5625 3.875,4.578125 3.875,12.4375 0,7.90625 -3.875,12.4375 Q 39.65625,40.375 33.015625,40.375 Z M 52.59375,71.296875 V 62.3125 q -3.71875,1.75 -7.5,2.671875 -3.78125,0.9375 -7.5,0.9375 -9.765625,0 -14.921875,-6.59375 -5.140625,-6.59375 -5.875,-19.921875 2.875,4.25 7.21875,6.515625 4.359375,2.265625 9.578125,2.265625 10.984375,0 17.359375,-6.671875 6.375,-6.65625 6.375,-18.125 0,-11.234375 -6.640625,-18.03125 -6.640625,-6.78125 -17.671875,-6.78125 -12.65625,0 -19.34375,9.6875 -6.6875,9.703125 -6.6875,28.109375 0,17.28125 8.203125,27.5625 8.203125,10.28125 22.015625,10.28125 3.71875,0 7.5,-0.734375 3.78125,-0.734375 7.890625,-2.1875 z"
               style="stroke-width:0.015625" />
          </g>
        </g>
      </g>
      <g
         id="ytick_10">
        <g
           id="line2d_24">
          <g
             id="g902">
            <use
               xlink:href="#m023d93ce53"
               x="78.120003"
               y="150.70145"
               style="stroke:#000000;stroke-width:0.8"
               id="use900"
               width="100%"
               height="100%" />
          </g>
        </g>
        <g
           id="text_28">
          <!-- 7 -->
          <g
             transform="matrix(0.0833,0,0,-0.0833,65.820037,153.86619)"
             id="g907">
            <path
               id="use905"
               d="m 8.203125,72.90625 h 46.875 V 68.703125 L 28.609375,0 H 18.3125 L 43.21875,64.59375 H 8.203125 Z"
               style="stroke-width:0.015625" />
          </g>
        </g>
      </g>
      <g
         id="ytick_11">
        <g
           id="line2d_25">
          <g
             id="g913">
            <use
               xlink:href="#m023d93ce53"
               x="78.120003"
               y="161.88708"
               style="stroke:#000000;stroke-width:0.8"
               id="use911"
               width="100%"
               height="100%" />
          </g>
        </g>
        <g
           id="text_29">
          <!-- 8 -->
          <g
             transform="matrix(0.0833,0,0,-0.0833,65.820037,165.05183)"
             id="g918">
            <path
               id="use916"
               d="m 31.78125,34.625 q -7.03125,0 -11.0625,-3.765625 -4.015625,-3.765625 -4.015625,-10.34375 0,-6.59375 4.015625,-10.359375 4.03125,-3.765625 11.0625,-3.765625 7.03125,0 11.078125,3.78125 4.0625,3.796875 4.0625,10.34375 0,6.578125 -4.03125,10.34375 Q 38.875,34.625 31.78125,34.625 Z m -9.859375,4.1875 Q 15.578125,40.375 12.03125,44.71875 8.5,49.078125 8.5,55.328125 q 0,8.734375 6.21875,13.8125 6.234375,5.078125 17.0625,5.078125 10.890625,0 17.09375,-5.078125 6.203125,-5.078125 6.203125,-13.8125 0,-6.25 -3.546875,-10.609375 Q 48,40.375 41.703125,38.8125 q 7.125,-1.65625 11.09375,-6.5 3.984375,-4.828125 3.984375,-11.796875 0,-10.609375 -6.46875,-16.28125 -6.46875,-5.65625 -18.53125,-5.65625 -12.046875,0 -18.53125,5.65625 -6.46875,5.671875 -6.46875,16.28125 0,6.96875 4,11.796875 4.015625,4.84375 11.140625,6.5 z M 18.3125,54.390625 q 0,-5.65625 3.53125,-8.828125 3.546875,-3.171875 9.9375,-3.171875 6.359375,0 9.9375,3.171875 3.59375,3.171875 3.59375,8.828125 0,5.671875 -3.59375,8.84375 -3.578125,3.171875 -9.9375,3.171875 -6.390625,0 -9.9375,-3.171875 Q 18.3125,60.0625 18.3125,54.390625 Z"
               style="stroke-width:0.015625" />
          </g>
        </g>
      </g>
      <g
         id="ytick_12">
        <g
           id="line2d_26">
          <g
             id="g924">
            <use
               xlink:href="#m023d93ce53"
               x="78.120003"
               y="173.07272"
               style="stroke:#000000;stroke-width:0.8"
               id="use922"
               width="100%"
               height="100%" />
          </g>
        </g>
        <g
           id="text_30">
          <!-- 9 -->
          <g
             transform="matrix(0.0833,0,0,-0.0833,65.820037,176.23747)"
             id="g929">
            <path
               id="use927"
               d="M 10.984375,1.515625 V 10.5 Q 14.703125,8.734375 18.5,7.8125 q 3.8125,-0.921875 7.484375,-0.921875 9.765625,0 14.90625,6.5625 5.15625,6.5625 5.890625,19.953125 -2.828125,-4.203125 -7.1875,-6.453125 -4.34375,-2.25 -9.609375,-2.25 -10.9375,0 -17.3125,6.609375 -6.375,6.625 -6.375,18.109375 0,11.21875 6.640625,18 6.640625,6.796875 17.671875,6.796875 12.65625,0 19.3125,-9.703125 6.671875,-9.6875 6.671875,-28.140625 0,-17.234375 -8.1875,-27.515625 -8.171875,-10.28125 -21.984375,-10.28125 -3.71875,0 -7.53125,0.734375 -3.796875,0.734375 -7.90625,2.203125 z m 19.625,30.90625 q 6.640625,0 10.515625,4.53125 3.890625,4.546875 3.890625,12.46875 0,7.859375 -3.890625,12.421875 -3.875,4.5625 -10.515625,4.5625 -6.640625,0 -10.515625,-4.5625 -3.875,-4.5625 -3.875,-12.421875 0,-7.921875 3.875,-12.46875 3.875,-4.53125 10.515625,-4.53125 z"
               style="stroke-width:0.015625" />
          </g>
        </g>
      </g>
      <g
         id="ytick_13">
        <g
           id="line2d_27">
          <g
             id="g935">
            <use
               xlink:href="#m023d93ce53"
               x="78.120003"
               y="184.25836"
               style="stroke:#000000;stroke-width:0.8"
               id="use933"
               width="100%"
               height="100%" />
          </g>
        </g>
        <g
           id="text_31">
          <!-- 10 -->
          <g
             transform="matrix(0.0833,0,0,-0.0833,60.520075,187.42311)"
             id="g942">
            <path
               id="use938"
               d="m 12.40625,8.296875 h 16.109375 v 55.625 L 10.984375,60.40625 v 8.984375 l 17.4375,3.515625 H 38.28125 V 8.296875 H 54.390625 V 0 H 12.40625 Z"
               style="stroke-width:0.015625" />
            <path
               id="use940"
               d="m 95.404297,66.40625 q -7.609375,0 -11.453125,-7.5 -3.828125,-7.484375 -3.828125,-22.53125 0,-14.984375 3.828125,-22.484375 3.84375,-7.5 11.453125,-7.5 7.671873,0 11.500003,7.5 3.84375,7.5 3.84375,22.484375 0,15.046875 -3.84375,22.53125 -3.82813,7.5 -11.500003,7.5 z m 0,7.8125 q 12.265623,0 18.734373,-9.703125 6.46875,-9.6875 6.46875,-28.140625 0,-18.40625 -6.46875,-28.109375 -6.46875,-9.6875 -18.734373,-9.6875 -12.25,0 -18.71875,9.6875 -6.46875,9.703125 -6.46875,28.109375 0,18.453125 6.46875,28.140625 6.46875,9.703125 18.71875,9.703125 z"
               style="stroke-width:0.015625" />
          </g>
        </g>
      </g>
    </g>
    <g
       id="patch_7"
       transform="translate(-21.637897,3.5084461)">
      <path
         d="M 78.12,195.444 V 61.21633"
         style="fill:none;stroke:#000000;stroke-width:0.8;stroke-linecap:square;stroke-linejoin:miter"
         id="path947" />
    </g>
    <g
       id="patch_9"
       transform="translate(-21.637897,3.5084461)">
      <path
         d="M 78.12,195.444 H 313.40308"
         style="fill:none;stroke:#000000;stroke-width:0.8;stroke-linecap:square;stroke-linejoin:miter"
         id="path953" />
    </g>
    <text
       xml:space="preserve"
       style="font-size:10px;line-height:1.25;font-family:sans-serif;stroke-width:0.75"
       x="-105.99798"
       y="210.58339"
       id="text1815"
       transform="rotate(-42.238212)"><tspan
         sodipodi:role="line"
         id="tspan1813"
         style="font-size:10px;stroke-width:0.75"
         x="-105.99798"
         y="210.58339">wnt5a</tspan></text>
    <text
       xml:space="preserve"
       style="font-size:10px;line-height:1.25;font-family:sans-serif;stroke-width:0.75"
       x="-83.802063"
       y="235.64178"
       id="text4657"
       transform="rotate(-42.238212)"><tspan
         sodipodi:role="line"
         id="tspan4655"
         style="font-size:10px;stroke-width:0.75"
         x="-83.802063"
         y="235.64178">foxo3b</tspan></text>
    <text
       xml:space="preserve"
       style="font-size:10px;line-height:1.25;font-family:sans-serif;stroke-width:0.75"
       x="-58.898403"
       y="259.60553"
       id="text7279"
       transform="rotate(-42.238212)"><tspan
         sodipodi:role="line"
         id="tspan7277"
         style="font-size:10px;stroke-width:0.75"
         x="-58.898403"
         y="259.60553">tead1b</tspan></text>
    <text
       xml:space="preserve"
       style="font-size:10px;line-height:1.25;font-family:sans-serif;stroke-width:0.75"
       x="-37.068218"
       y="282.47461"
       id="text12101"
       transform="rotate(-42.238212)"><tspan
         sodipodi:role="line"
         style="font-size:10px;stroke-width:0.75"
         x="-37.068218"
         y="282.47461"
         id="tspan12103">pou3f3a</tspan></text>
    <text
       xml:space="preserve"
       style="font-size:10px;line-height:1.25;font-family:sans-serif;stroke-width:0.75"
       x="-12.250231"
       y="307.53302"
       id="text12769"
       transform="rotate(-42.238212)"><tspan
         sodipodi:role="line"
         id="tspan12767"
         style="font-size:10px;stroke-width:0.75"
         x="-12.250231"
         y="307.53302">pou3f3b</tspan></text>
    <text
       xml:space="preserve"
       style="font-size:10px;line-height:1.25;font-family:sans-serif;stroke-width:0.75"
       x="38.129753"
       y="330.4021"
       id="text15383"
       transform="rotate(-42.238212)"><tspan
         sodipodi:role="line"
         id="tspan15381"
         style="font-size:10px;stroke-width:0.75"
         x="38.129753"
         y="330.4021">nfia</tspan></text>
  </g>
</svg>
